<svg id="objects" xmlns="http://www.w3.org/2000/svg" viewBox="0 0 109.13 160.19"><defs><style>.cls-1{fill:#f7eee6;}.cls-2{opacity:0.5;}.cls-3{fill:#bfb8b2;}.cls-4{fill:#ff7bac;}.cls-5{fill:#d6cec7;}.cls-6{fill:#4f4742;}.cls-7{fill:#d4145a;}.cls-8{fill:#fff;}.cls-9{fill:#6b625a;opacity:0.7;}</style></defs><title>maltese</title><path class="cls-1" d="M342,68.76c-2.21-5.3-10.94-15-13.26-13.82s-7.4,15.25.11,26.09C334.89,84.78,342.73,73,342,68.76Z" transform="translate(-321.29 -54.84)"/><g class="cls-2"><path class="cls-3" d="M342,68.76c-2.21-5.3-10.94-15-13.26-13.82a1.53,1.53,0,0,0-.25.17c2.08-.81,4.62,2.05,6.7,7.9,2.36,6.63,5.6,9.28,5.6,9.28s0.57-1.45,1.24-3.37C342,68.87,342,68.81,342,68.76Z" transform="translate(-321.29 -54.84)"/></g><path class="cls-4" d="M328.81,77.6c-1.22-2.43-2.43-14.15,1-19.56,0.55-1,2.76,10.06,6.19,14C336.76,76.94,328.81,77.6,328.81,77.6Z" transform="translate(-321.29 -54.84)"/><path class="cls-5" d="M390.41,175.45c0.15,5.45,7.22,25.83,4.86,27.6-3.83,1.77-3.24,11.79,12.82,5.6,5.75-2.36,5.31-6.53,5.31-7.12s-5.16-25.79-6.19-26.67" transform="translate(-321.29 -54.84)"/><path class="cls-1" d="M425,168c0-5.42,6.52-24.54,5.31-30.73S425,121.37,425,120.15s-0.77-1.55-3.32-2,0.77-1.22,1.22-3c-1.33-2.87-11.16-13.26-15.36-9.62,2.32,1.44,7.18,13.71,9,18.13s-1.77,10.17-5.53,10.28-14.92-2.21-20-2.65-7-1.44-7.18-7.63C392,120.48,395.68,113.85,395,110c0,0-.44.55-2.76,0.77,0,0,2.76-6.19,2.21-9.73-0.67-4.26.66-7.3,1.22-8s-0.77-2.43-3.05-3.93c0,0,3.83.72,4.38-.05s-5.42-8.4-9.4-8.18c0,0,6.3-19.34,2-24-5-.33-12.16,8.51-13.15,9.17s-1.22-5.64-2.54-5.64-2.32,3.43-2.76,4.09-4.64-5.19-5.64-5.75c-0.55-.22-1.88.11-1.33,3.09,0,0-9.24-.88-13.66.56a5.12,5.12,0,0,0,1-2.54,18.05,18.05,0,0,0-14.64,9.83c-0.77.88-1.55,1.66-2.76,1.55s-4.53,1.82-4.53,1.82,0.22,4.26,1.44,5.25-3.09-1.22-3.09-1.22l-2.54-.22s-0.55.33-.44,3c-0.33.11-2.1,3.65-1.55,7.52-2.87,5.42,1.33,9.17-.92,13.45a5.31,5.31,0,0,0,.48,5,62.47,62.47,0,0,0-1.66,7.29c0,1.33.77-.44,2.87-1.88,0,0-2.65,6.63-2.65,8.18s3.21,5,4,5.08A12,12,0,0,0,331,124c0.33,0-2.06,1.55-1.91,1.84s1,0.59,2.36.26,2.87-1.66,3.21-1.66-0.92,2-.77,2.36,1.55,1.4,5.19,1.29a69.7,69.7,0,0,1-.48,7.6c-1.58,3.6-4.57,13.4-4.27,14.39,1-.11,2.32-1.77,2.32-1.77-0.06.38-.13,0.79-0.22,1.22-1.5,4.59-2.87,10.36-2.54,13.59,0,0,1.22-1.77,3-4.09-3.43,7.07-3.76,12.16-.77,15.69A25.43,25.43,0,0,0,339,185.47c3,6.08,5.2,13,1.66,17.85-6.74,4.53-.11,6.8,2.76,6.25a6,6,0,0,0,5.42.55c3.87,0.11,6-1.33,7.63-4.2s0-23.1-.44-29.63c0,0,2.87-.33,4,0.22s4.64,3.76,5.3,6.41,3,18.24,4.42,24c-4.31,1.55-2.87,8.4,1.77,7.18,0,0,3,1.77,4.42.22,0,0,1,.66,4.09.11,4.2-1.33,6.52-2.76,6.3-8.62s-2.43-23.77-1.11-29.63c2.76,3,13.59,2.21,20.67,1.22,1.55,1.88,1.22,11.94,2.87,16.8s0.88,5.09,1.22,9.51c0,0-6,1.22-6.19,3.54s2.76,5.86,5.75,4.42c-0.44,1.33,3.87,1.61,7.18-.16,0,0,4.31,1,6.63-.11s2.32-6,2-9.07S425,173.43,425,168Z" transform="translate(-321.29 -54.84)"/><path class="cls-6" d="M348.77,117.38c0.12,0.06-.13,1.19-1.37,2.63a4.79,4.79,0,0,1-3,1.64,4.23,4.23,0,0,1-3.79-1.87,5.85,5.85,0,0,1-.42-0.6l-0.17-.29h0a0.15,0.15,0,0,0,0,0h0s0,0-.22.28a2.71,2.71,0,0,1-1.42.9,2.77,2.77,0,0,1-2.54-.65c-1-1.06-1-2-.86-2s0.43,0.72,1.35,1.35a2,2,0,0,0,1.73.24,1.66,1.66,0,0,0,.81-0.61,1.18,1.18,0,0,0,.2-0.36l0.16-.33a4.28,4.28,0,0,0,.13-0.47l0.46-1.92,1,2.31,0.3,0.61,0.16,0.28a5.14,5.14,0,0,0,.35.49,3.14,3.14,0,0,0,2.65,1.46,4.21,4.21,0,0,0,2.43-1.1C348,118.24,348.58,117.27,348.77,117.38Z" transform="translate(-321.29 -54.84)"/><path class="cls-4" d="M385.06,80.91c1.88-1.88,5.42-15.47,3.65-20.45-1.77-1.88-8.07,5.42-8.18,10.94,0.44-.22,1.33-1.22,1.66-0.44S385.17,79.7,385.06,80.91Z" transform="translate(-321.29 -54.84)"/><path class="cls-3" d="M346.6,173.54a0.54,0.54,0,0,1-.59.18,2.6,2.6,0,0,1-1.48-.68,9.26,9.26,0,0,1-2.44-4.37,14.2,14.2,0,0,1-.58-4.88c0.08-1.28.5-2,.67-2a6.38,6.38,0,0,1,.26,2,28.25,28.25,0,0,0,.92,4.53,12.63,12.63,0,0,0,1.84,4.08A7.6,7.6,0,0,0,346.6,173.54Z" transform="translate(-321.29 -54.84)"/><path class="cls-3" d="M351.8,176.52c0,0.15-.72.36-1.77-0.09a7.14,7.14,0,0,1-3-2.87,10.74,10.74,0,0,1-1.48-3.81c-0.17-1.05,0-1.74.19-1.73a3.57,3.57,0,0,1,.71,1.48,23.81,23.81,0,0,0,1.7,3.36,9.91,9.91,0,0,0,2.36,2.76A5.46,5.46,0,0,1,351.8,176.52Z" transform="translate(-321.29 -54.84)"/><path class="cls-3" d="M358,176.19c0,0.33-2.36.72-5.13-.27a7.16,7.16,0,0,1-3.14-2c-0.66-.79-0.63-1.54-0.46-1.55a6.33,6.33,0,0,1,1.11.89,11.84,11.84,0,0,0,2.94,1.47C355.78,175.57,358,175.8,358,176.19Z" transform="translate(-321.29 -54.84)"/><path class="cls-3" d="M365.5,184.48c-0.19,0-.47-0.69-0.88-1.83L363,178.16c-0.65-1.76-1.21-3.37-1.53-4.57s-0.42-2-.25-2,0.57,0.61,1.12,1.71a47.1,47.1,0,0,1,1.9,4.45,26.84,26.84,0,0,1,1.31,4.7C365.71,183.66,365.67,184.45,365.5,184.48Z" transform="translate(-321.29 -54.84)"/><path class="cls-3" d="M384.51,183a0.78,0.78,0,0,1-.29-0.62c-0.05-.21-0.1-0.46-0.16-0.76l-0.08-.48c0-.17,0-0.35,0-0.54a22.74,22.74,0,0,1,.68-5.82c1-4.45,2.84-7.75,3.17-7.58s-0.88,3.55-1.88,7.89a53.87,53.87,0,0,0-1,5.56l-0.08.51,0,0.45c0,0.28,0,.53-0.07.74A0.91,0.91,0,0,1,384.51,183Z" transform="translate(-321.29 -54.84)"/><path class="cls-3" d="M344.94,204.27a1.59,1.59,0,0,1-.52.83,6.08,6.08,0,0,0-1,1.7,3.51,3.51,0,0,0-.18,1.81,1.55,1.55,0,0,1,.11,1c-0.11.12-.54,0-1-0.58a3,3,0,0,1-.21-2.63,3.67,3.67,0,0,1,1.61-2C344.44,204,344.9,204.1,344.94,204.27Z" transform="translate(-321.29 -54.84)"/><path class="cls-3" d="M348.59,206.15a1.22,1.22,0,0,1-.12.76,3.61,3.61,0,0,0-.18,1.27,3.25,3.25,0,0,0,.3,1.21,0.88,0.88,0,0,1,.22.75c-0.08.16-.4,0.14-0.88-0.09a2.68,2.68,0,0,1-.64-0.69c-0.08-.16-0.15-0.34-0.22-0.52a2.72,2.72,0,0,1-.09-0.6,2.34,2.34,0,0,1,.75-1.87,1.05,1.05,0,0,1,.57-0.29A0.26,0.26,0,0,1,348.59,206.15Z" transform="translate(-321.29 -54.84)"/><path class="cls-3" d="M371.91,209.68c0.33,0.16.15,1.14,0.07,2.2a6,6,0,0,0,0,1.27,1.1,1.1,0,0,1,0,.73c-0.1.13-.45,0.11-0.82-0.28a2.46,2.46,0,0,1-.53-1.81C370.79,210.36,371.6,209.51,371.91,209.68Z" transform="translate(-321.29 -54.84)"/><path class="cls-3" d="M375.89,211a1,1,0,0,1,.17.74,7,7,0,0,0,.17,1.29,4.85,4.85,0,0,0,.48,1.14,1,1,0,0,1,.29.69c0,0.16-.37.23-0.87,0a2.41,2.41,0,0,1-1.18-1.55,2.6,2.6,0,0,1,.22-1.89C375.44,211,375.76,210.9,375.89,211Z" transform="translate(-321.29 -54.84)"/><path class="cls-3" d="M410.49,207.25a1.85,1.85,0,0,1-.57.78,2.74,2.74,0,0,0-.52,1.71,5.31,5.31,0,0,0,.39,1.94,1.5,1.5,0,0,1,.26,1c-0.1.14-.54,0-1-0.46a3.58,3.58,0,0,1-.94-2.47,3.28,3.28,0,0,1,.36-1.5,2.34,2.34,0,0,1,.9-0.94C410,207,410.46,207.1,410.49,207.25Z" transform="translate(-321.29 -54.84)"/><path class="cls-3" d="M416.45,207c0.18,0.3-.56,1.16-0.51,2.32s0.92,1.88.73,2.21c-0.08.14-.46,0.17-1-0.15a2.49,2.49,0,0,1-1.09-2,2.67,2.67,0,0,1,.89-2.09C416,206.85,416.37,206.83,416.45,207Z" transform="translate(-321.29 -54.84)"/><path class="cls-3" d="M409.27,187c-0.32.15-1.44-1.46-2.28-3.73-0.2-.57-0.37-1.12-0.51-1.62a13,13,0,0,1-.22-1.39c-0.08-.8,0-1.3.14-1.33a1.68,1.68,0,0,1,.77,1.1c0.16,0.35.31,0.78,0.48,1.25s0.4,1,.59,1.53C409,185,409.61,186.83,409.27,187Z" transform="translate(-321.29 -54.84)"/><path class="cls-3" d="M337.54,182c-0.16.07-.54-0.45-1-1.42a13.36,13.36,0,0,1-.78-4c-0.22-3.14.61-5.68,1-5.56s0.13,2.49.34,5.49c0.06,1.5.25,2.82,0.36,3.79S337.71,182,337.54,182Z" transform="translate(-321.29 -54.84)"/><path class="cls-3" d="M339.53,186.91c-0.16.08-.52-0.36-1-1.15a11.67,11.67,0,0,1-1-3.36c-0.43-2.71.15-4.95,0.5-4.88s0.4,2.14.8,4.69c0.16,1.28.42,2.4,0.55,3.25A2,2,0,0,1,339.53,186.91Z" transform="translate(-321.29 -54.84)"/><path class="cls-3" d="M336.87,158.5c0.34,0.13.25,1.34-.2,2.69s-1.1,2.38-1.46,2.28-0.26-1.3.2-2.69S336.53,158.37,336.87,158.5Z" transform="translate(-321.29 -54.84)"/><path class="cls-3" d="M329.8,125.12c-0.25-.25.52-1.47,1.91-2.55a9,9,0,0,1,1-.71,8.61,8.61,0,0,1,.94-0.42,1,1,0,0,1,1-.08,1.15,1.15,0,0,1-.53.88,7.38,7.38,0,0,1-.72.61c-0.27.23-.56,0.5-0.89,0.75C331.22,124.63,330.07,125.39,329.8,125.12Z" transform="translate(-321.29 -54.84)"/><path class="cls-3" d="M334.22,126.23c-0.32-.17.07-1.54,1.14-2.92a8.84,8.84,0,0,1,.84-0.9,8.18,8.18,0,0,1,.85-0.59c0.58-.24,1-0.28,1-0.12a1.09,1.09,0,0,1-.45.85,6.86,6.86,0,0,1-.56.7c-0.2.28-.44,0.56-0.68,0.88C335.42,125.38,334.54,126.4,334.22,126.23Z" transform="translate(-321.29 -54.84)"/><path class="cls-3" d="M339.2,127.67c-0.36,0-.53-1.14-0.11-2.41a3.92,3.92,0,0,1,.88-1.49,0.72,0.72,0,0,1,.78-0.3,0.83,0.83,0,0,1,0,.79,14.09,14.09,0,0,1-.43,1.42C340,126.78,339.56,127.71,339.2,127.67Z" transform="translate(-321.29 -54.84)"/><path class="cls-3" d="M379.54,123.14c0.12,0.11-.28.63-1.1,1a9.91,9.91,0,0,1-3.33.88,10.28,10.28,0,0,1-3.44-.18c-0.87-.27-1.35-0.54-1.3-0.71a1.94,1.94,0,0,1,1.41-.21c0.83,0,1.95-.05,3.2-0.2s2.36-.31,3.17-0.45A2.57,2.57,0,0,1,379.54,123.14Z" transform="translate(-321.29 -54.84)"/><path class="cls-3" d="M384.84,118.94a1,1,0,0,1-.74.85,6,6,0,0,1-2.45.67c-1.95.14-3.46-.29-3.44-0.64s1.54-.54,3.33-0.68c0.89-.09,1.69-0.14,2.24-0.24A1.42,1.42,0,0,1,384.84,118.94Z" transform="translate(-321.29 -54.84)"/><path class="cls-3" d="M335.33,84.3c0.22-.22,2.13,1.09,3.71,3.57a9.05,9.05,0,0,1,1.25,3.5c0.06,1,0,1.54-.21,1.56a2.17,2.17,0,0,1-.7-1.34,20.27,20.27,0,0,0-1.47-3C336.5,86.32,335,84.58,335.33,84.3Z" transform="translate(-321.29 -54.84)"/><path class="cls-3" d="M324.68,79.22c0.36-.14,1.37,2.33,3.64,4.4s4.9,2.47,4.85,2.88a0.54,0.54,0,0,1-.5.18,4.56,4.56,0,0,1-1.33-.08,8.08,8.08,0,0,1-3.91-2A9.66,9.66,0,0,1,325,81C324.55,80,324.52,79.27,324.68,79.22Z" transform="translate(-321.29 -54.84)"/><path class="cls-3" d="M371.39,77.69a1.41,1.41,0,0,1-.91.05,22.74,22.74,0,0,0-2.33-.2A14.07,14.07,0,0,0,360.88,79a16,16,0,0,0-5.54,5c-1.14,1.6-1.6,2.75-1.79,2.69s0-1.35,1-3.18a14,14,0,0,1,5.72-5.7,12.75,12.75,0,0,1,8-1.25,9.79,9.79,0,0,1,2.36.63A1.31,1.31,0,0,1,371.39,77.69Z" transform="translate(-321.29 -54.84)"/><path class="cls-3" d="M378,80.91c0.11,0.12-.41.74-1.55,1.22a13.37,13.37,0,0,1-4.57.83,38.07,38.07,0,0,1-4.52-.18c-0.56,0-1-.1-1.32-0.11a1,1,0,0,1-.52-0.1,0.14,0.14,0,0,1,.06-0.17,0.9,0.9,0,0,1,.36-0.24,5.12,5.12,0,0,1,1.4-.32c1.17-.14,2.77-0.15,4.5-0.21a28.49,28.49,0,0,0,4.34-.4C377.24,81,377.87,80.75,378,80.91Z" transform="translate(-321.29 -54.84)"/><path class="cls-3" d="M358.87,86.66a0.55,0.55,0,0,1-.26.39c-0.19.18-.47,0.33-0.78,0.64-0.66.52-1.5,1.38-2.44,2.3s-1.73,1.84-2.28,2.5c-0.31.32-.51,0.59-0.69,0.77a0.52,0.52,0,0,1-.41.24,0.42,0.42,0,0,1-.06-0.46,3.41,3.41,0,0,1,.37-1.06,12,12,0,0,1,2.11-2.91,10.37,10.37,0,0,1,2.89-2.18,3,3,0,0,1,1.09-.33C358.69,86.55,358.84,86.57,358.87,86.66Z" transform="translate(-321.29 -54.84)"/><path class="cls-3" d="M366.28,91.86c-0.16.37-2.36-.45-5.08-0.46a7.51,7.51,0,0,0-3.27.6,6.58,6.58,0,0,1-1.27.75c-0.15,0-.1-0.79.74-1.52a5.88,5.88,0,0,1,3.8-1.15,9.49,9.49,0,0,1,3.77.8C365.88,91.29,366.34,91.7,366.28,91.86Z" transform="translate(-321.29 -54.84)"/><path class="cls-3" d="M375.78,95.95c0.12,0.12-.44.75-1.62,0.92a9.66,9.66,0,0,1-4.32-.54c-3.2-1-5.37-2.83-5.11-3.15s2.49,0.92,5.52,1.9a16.49,16.49,0,0,0,3.86.86A8.79,8.79,0,0,1,375.78,95.95Z" transform="translate(-321.29 -54.84)"/><path class="cls-3" d="M378.54,85.23a0.33,0.33,0,0,1,0,.39,2.4,2.4,0,0,1-.22.35c-0.1.11-.22,0.23-0.36,0.36a7.79,7.79,0,0,1-2.46,1.46,7.18,7.18,0,0,1-2.83.54c-0.77,0-1.22-.29-1.18-0.45a1.73,1.73,0,0,1,1.08-.48c0.63-.19,1.5-0.47,2.45-0.85s1.81-.73,2.41-1l0.43-.17,0.31-.13A0.48,0.48,0,0,1,378.54,85.23Z" transform="translate(-321.29 -54.84)"/><path class="cls-3" d="M354.28,62.35a1.85,1.85,0,0,1-1.25.4,12.85,12.85,0,0,0-2.69,1c-1,.51-2,1-2.76,1.32s-1.29.35-1.36,0.19a1.76,1.76,0,0,1,.91-1,15.8,15.8,0,0,1,2.64-1.69,6.54,6.54,0,0,1,3.22-.71C353.84,62,354.31,62.19,354.28,62.35Z" transform="translate(-321.29 -54.84)"/><path class="cls-3" d="M385.4,62c0.19,0.32-1.45,1.66-3.27,3.51-0.89.94-1.68,1.79-2.2,2.45s-0.86,1.08-1.05,1-0.12-.65.26-1.5a10.61,10.61,0,0,1,2.06-2.88C383.13,62.63,385.23,61.7,385.4,62Z" transform="translate(-321.29 -54.84)"/><path class="cls-3" d="M396.34,89.43a1,1,0,0,1-1.05.26,8.14,8.14,0,0,1-2.28-.61c-0.83-.33-1.54-0.7-2-0.94l-0.33-.19-0.24-.13a0.46,0.46,0,0,1-.25-0.27,0.3,0.3,0,0,1,.26-0.24,2,2,0,0,1,.35-0.09,3.6,3.6,0,0,1,.44,0,7.93,7.93,0,0,1,2.29.62c0.83,0.34,1.53.66,2,.93A1.22,1.22,0,0,1,396.34,89.43Z" transform="translate(-321.29 -54.84)"/><path class="cls-6" d="M335.73,110.54c-1.22,2.43,2.36,7.52,4.46,7.52s7.29-4.09,6.85-5.53C346.16,109.65,336.95,108.44,335.73,110.54Z" transform="translate(-321.29 -54.84)"/><path class="cls-3" d="M338.09,74.73a1.4,1.4,0,0,1-1-.69,8.73,8.73,0,0,0-1.74-1.64,3.77,3.77,0,0,0-2.15-.46,1.57,1.57,0,0,1-1.16-.14,1.21,1.21,0,0,1,1-.77,3.8,3.8,0,0,1,1.33-.25,3.38,3.38,0,0,1,1.68.48,4.85,4.85,0,0,1,1.85,2.26A1.33,1.33,0,0,1,338.09,74.73Z" transform="translate(-321.29 -54.84)"/><path class="cls-3" d="M334.26,80.69a3.85,3.85,0,0,1-1.16-.91,7.13,7.13,0,0,0-2.89-1.36l-0.93-.13-1-.16a4.92,4.92,0,0,1-1.6-.57,1.66,1.66,0,0,0-.52-0.2l-0.43-.15a0.53,0.53,0,0,1-.38-0.29,0.44,0.44,0,0,1,.41-0.22l0.5-.07a1.65,1.65,0,0,1,.68,0,6.89,6.89,0,0,0,1.49.26L329.39,77c0.35,0,.72.06,1.09,0.12a5.64,5.64,0,0,1,3.3,2C334.38,80,334.43,80.64,334.26,80.69Z" transform="translate(-321.29 -54.84)"/><path class="cls-3" d="M327.51,86.81a2.22,2.22,0,0,1,1.11.68,12.22,12.22,0,0,0,2.6,1.25A5.63,5.63,0,0,1,334,90.58c0.51,0.8.41,1.39,0.26,1.42a3,3,0,0,1-1-.81A9.28,9.28,0,0,0,330.73,90,6.42,6.42,0,0,1,328,88.16C327.44,87.44,327.37,86.88,327.51,86.81Z" transform="translate(-321.29 -54.84)"/><path class="cls-3" d="M343.62,62.35c0.24,0.35-2,2-4.12,4.65a27.13,27.13,0,0,0-2.44,3.54c-0.57,1-.88,1.59-1.07,1.53s-0.16-.79.22-1.92a13,13,0,0,1,2.26-4C340.77,63.34,343.47,62.08,343.62,62.35Z" transform="translate(-321.29 -54.84)"/><path class="cls-7" d="M338.75,128.11c-1.88,1-2.14,4.06-2.87,5.86-2.71,6.64,7.41,26.75,9.95,25.42,10.17-3.54,28.88-24,39.13-27.63,1.55-.55,2.21-0.88,0-8.84C377.77,127.45,355.66,132.31,338.75,128.11Z" transform="translate(-321.29 -54.84)"/><circle class="cls-8" cx="340.27" cy="133.45" r="2.58" transform="translate(-331.79 181.33) rotate(-37.74)"/><circle class="cls-8" cx="340.73" cy="144.64" r="2.58" transform="translate(-338.53 184.03) rotate(-37.75)"/><circle class="cls-8" cx="350.17" cy="137.34" r="2.58" transform="translate(-332.09 188.25) rotate(-37.74)"/><path class="cls-8" d="M340.66,153.32a32.49,32.49,0,0,0,2.55,4.12A2.57,2.57,0,0,0,340.66,153.32Z" transform="translate(-321.29 -54.84)"/><path class="cls-8" d="M386.29,130.58a3.19,3.19,0,0,0,.08-0.71A2.6,2.6,0,0,0,386.29,130.58Z" transform="translate(-321.29 -54.84)"/><path class="cls-8" d="M358.13,151.53l2.07-1.66A2.53,2.53,0,0,0,358.13,151.53Z" transform="translate(-321.29 -54.84)"/><path class="cls-8" d="M376.91,128.19A2.58,2.58,0,1,0,381,125l-0.12-.12c-1.33.53-2.84,1-4.49,1.53A2.56,2.56,0,0,0,376.91,128.19Z" transform="translate(-321.29 -54.84)"/><path class="cls-8" d="M368.18,143.28l0.37-.31-0.14.09A2.4,2.4,0,0,0,368.18,143.28Z" transform="translate(-321.29 -54.84)"/><circle class="cls-8" cx="360.08" cy="141.22" r="2.58" transform="translate(-332.38 195.18) rotate(-37.75)"/><path class="cls-8" d="M361.19,132.07a2.57,2.57,0,0,0,.86-2.84c-1.63.18-3.3,0.31-5,.39A2.57,2.57,0,0,0,361.19,132.07Z" transform="translate(-321.29 -54.84)"/><circle class="cls-8" cx="350.64" cy="148.53" r="2.58" transform="translate(-338.83 190.93) rotate(-37.75)"/><circle class="cls-8" cx="369.51" cy="133.92" r="2.58" transform="translate(-325.94 199.4) rotate(-37.75)"/><path class="cls-9" d="M336.47,111.2c0,1.47,5.75,1.77,5.75.59S336.62,109.73,336.47,111.2Z" transform="translate(-321.29 -54.84)"/><path class="cls-3" d="M354.78,131.09c-0.12.34-2.34-.09-4.88-1.25a12.23,12.23,0,0,1-3.06-1.92c-0.72-.64-0.95-1.28-0.79-1.36a3.3,3.3,0,0,1,1.33.61c0.76,0.4,1.85.91,3.07,1.48C352.9,129.76,354.9,130.75,354.78,131.09Z" transform="translate(-321.29 -54.84)"/><path class="cls-3" d="M361.19,129.44c-0.05.36-1.81,0.39-3.9-.13a9.35,9.35,0,0,1-2.59-1c-0.63-.41-0.92-0.82-0.81-0.94a1.61,1.61,0,0,1,1.17.09c0.65,0.14,1.54.36,2.55,0.6C359.62,128.53,361.25,129.07,361.19,129.44Z" transform="translate(-321.29 -54.84)"/><path d="M338.19,100.88c0,2.5-1.41,4.56-3.23,4.59s-3.31-2-3.34-4.48,1.41-4.56,3.23-4.58S338.16,98.38,338.19,100.88Z" transform="translate(-321.29 -54.84)"/><path d="M339.25,102.9a0.93,0.93,0,0,1-.36-0.62c-0.14-.41-0.29-1-0.57-1.68l-0.2-.54-0.28-.55a6,6,0,0,0-.69-1.13,3.26,3.26,0,0,0-2.24-1.4,2.69,2.69,0,0,0-2.27,1.17,2.37,2.37,0,0,0-.37.54,4.84,4.84,0,0,0-.31.55,11.29,11.29,0,0,0-.42,1.1c-0.09.35-.19,0.67-0.28,1s-0.1.54-.15,0.75a0.94,0.94,0,0,1-.29.65,0.86,0.86,0,0,1-.22-0.68c0-.22-0.05-0.49-0.07-0.81s0.06-.68.1-1.08a8.56,8.56,0,0,1,.32-1.3,5.27,5.27,0,0,1,.31-0.7,3.11,3.11,0,0,1,.42-0.71A4.46,4.46,0,0,1,333,96.16a3.44,3.44,0,0,1,2-.49,4.25,4.25,0,0,1,3.14,2,6.1,6.1,0,0,1,.7,1.39l0.24,0.65,0.13,0.62a6.91,6.91,0,0,1,.19,1.87A0.86,0.86,0,0,1,339.25,102.9Z" transform="translate(-321.29 -54.84)"/><ellipse class="cls-8" cx="12.49" cy="45.66" rx="1.19" ry="1.34"/><ellipse cx="358.09" cy="101.81" rx="3.69" ry="4.69" transform="translate(-322.71 -49.7) rotate(-0.82)"/><path d="M363,103.84a1,1,0,0,1-.37-0.66c-0.08-.22-0.16-0.48-0.25-0.78s-0.25-.63-0.39-1a6.27,6.27,0,0,0-.54-1.14,6.79,6.79,0,0,0-.78-1.17,3.77,3.77,0,0,0-2.52-1.4,3.19,3.19,0,0,0-2.56,1.17l-0.24.25c-0.07.09-.13,0.2-0.19,0.29l-0.36.57c-0.16.41-.37,0.78-0.48,1.15s-0.21.71-.3,1l-0.17.8a1,1,0,0,1-.3.69,0.94,0.94,0,0,1-.21-0.72,8.35,8.35,0,0,1-.05-0.86c0-.34.07-0.72,0.13-1.15a11.58,11.58,0,0,1,.39-1.37c0.11-.24.24-0.47,0.37-0.72s0.13-.25.21-0.37l0.28-.35a4.24,4.24,0,0,1,3.55-1.7,4.74,4.74,0,0,1,3.4,2,6.82,6.82,0,0,1,.82,1.44,5.93,5.93,0,0,1,.45,1.34,9.58,9.58,0,0,1,.22,1.13c0,0.34,0,.62,0,0.86A0.94,0.94,0,0,1,363,103.84Z" transform="translate(-321.29 -54.84)"/><ellipse class="cls-8" cx="35.48" cy="46.53" rx="1.19" ry="1.35"/><path class="cls-3" d="M416.64,133.45c0.11,0.11-.14.64-0.94,1.11a4.43,4.43,0,0,1-1.5.51,8.19,8.19,0,0,1-1.86,0,23.06,23.06,0,0,1-3.13-.57,2,2,0,0,1-1.27-.5c0-.17.5-0.38,1.35-0.43a22.74,22.74,0,0,1,3.16.19,8.82,8.82,0,0,0,2.89-.1A2.54,2.54,0,0,1,416.64,133.45Z" transform="translate(-321.29 -54.84)"/><path class="cls-3" d="M418.11,134.48c0.26,0.21-.27,1.45-1.77,2.33a3.21,3.21,0,0,1-2.19.33c-0.56-.18-0.82-0.43-0.76-0.6a1,1,0,0,1,.81-0.33,6.92,6.92,0,0,0,1.52-.56C416.85,135,417.83,134.22,418.11,134.48Z" transform="translate(-321.29 -54.84)"/><path class="cls-3" d="M420.62,142.59a0.93,0.93,0,0,1,0,.9,6.42,6.42,0,0,1-.83,1.76,3.72,3.72,0,0,1-1.6,1.36c-0.54.18-.9,0.12-1,0a1,1,0,0,1,.45-0.74,16.34,16.34,0,0,0,1-1.33,11.68,11.68,0,0,1,1.11-1.48A0.86,0.86,0,0,1,420.62,142.59Z" transform="translate(-321.29 -54.84)"/><path class="cls-3" d="M422.09,151.87c0.1,0.37-.64.91-1.56,1.5s-1.68,1.09-2,.86,0.18-1.22,1.25-2S422,151.54,422.09,151.87Z" transform="translate(-321.29 -54.84)"/><path class="cls-3" d="M405.44,156.59c-0.09.37-1.1,0.47-2.36,0.48s-2.37-.26-2.36-0.62,1-.68,2.37-0.69S405.52,156.25,405.44,156.59Z" transform="translate(-321.29 -54.84)"/><path class="cls-3" d="M402.93,162.34c-0.13.34-1.19,0.19-2.36-.35s-1.91-1.24-1.77-1.57,1.2-.16,2.34.39S403.06,162,402.93,162.34Z" transform="translate(-321.29 -54.84)"/><path class="cls-3" d="M400.43,163.37c0.06,0.16-.37.47-1.19,0.69a6.13,6.13,0,0,1-3.23-.26c-2.38-.9-3.73-2.39-3.54-2.64s1.91,0.63,4,1.4a11.51,11.51,0,0,0,2.72.58A1.85,1.85,0,0,1,400.43,163.37Z" transform="translate(-321.29 -54.84)"/><path class="cls-3" d="M392.91,165.28a0.79,0.79,0,0,1-.75.52,3.56,3.56,0,0,1-2-.24c-1.44-.64-2.15-1.62-2-1.9s1.3,0.17,2.46.68c0.59,0.24,1.1.4,1.51,0.52A1,1,0,0,1,392.91,165.28Z" transform="translate(-321.29 -54.84)"/><path class="cls-3" d="M390.85,137.43c-0.35.13-.94-0.56-1.79-1.2s-1.66-1.08-1.61-1.45a0.7,0.7,0,0,1,.78-0.26,3.24,3.24,0,0,1,1.63.67,3.17,3.17,0,0,1,1.05,1.42A0.7,0.7,0,0,1,390.85,137.43Z" transform="translate(-321.29 -54.84)"/><path class="cls-3" d="M389.23,138c-0.12.35-1.41,0.16-2.82-.36s-2.49-.88-2.49-1.27,1.4-.52,2.92,0S389.34,137.68,389.23,138Z" transform="translate(-321.29 -54.84)"/><path class="cls-3" d="M385.54,141c0,0.34-1.08.69-2.46,0.39s-2.17-1.31-2-1.56,1.17,0,2.28.28S385.54,140.58,385.54,141Z" transform="translate(-321.29 -54.84)"/><path class="cls-3" d="M363.88,164a1.27,1.27,0,0,1-.93-0.52l-1.72-1.49c-1.36-1.16-2.44-2.25-2.22-2.56s1.62,0.32,3.08,1.56a7.14,7.14,0,0,1,1.58,1.91A1.07,1.07,0,0,1,363.88,164Z" transform="translate(-321.29 -54.84)"/><path class="cls-3" d="M361.52,167.05c-0.32.21-1.09-.33-2-1.11s-1.51-1.75-1.24-2,1.15,0.19,2.11,1S361.82,166.86,361.52,167.05Z" transform="translate(-321.29 -54.84)"/><path class="cls-3" d="M382.45,198a1.55,1.55,0,0,1-.22-1.2c0-.69,0-1.62-0.07-2.67-0.13-2.09-.23-3.87.14-3.94s1,1.61,1.18,3.87a8.4,8.4,0,0,1-.32,2.89C382.9,197.66,382.62,198.05,382.45,198Z" transform="translate(-321.29 -54.84)"/><path class="cls-3" d="M379.94,201c-0.35-.15-0.09-1.17.25-2.08,0.15-.45.21-0.84,0.3-1.19a0.77,0.77,0,0,1,.34-0.66,0.68,0.68,0,0,1,.58.54,2.6,2.6,0,0,1,0,1.71C381,200.6,380.25,201.17,379.94,201Z" transform="translate(-321.29 -54.84)"/><path class="cls-3" d="M398.33,205a1.58,1.58,0,0,1-.83.7,3.76,3.76,0,0,0-1.39,1.49,2.74,2.74,0,0,0-.07,1.94,1.54,1.54,0,0,1,.19,1.07,1.07,1.07,0,0,1-1-.63,2.89,2.89,0,0,1-.31-2.91,3.29,3.29,0,0,1,2.24-1.82A1.06,1.06,0,0,1,398.33,205Z" transform="translate(-321.29 -54.84)"/><path class="cls-3" d="M403,204.93a1.62,1.62,0,0,1-.81.7,3.11,3.11,0,0,0-1.23,1.55,3.2,3.2,0,0,0,.07,2,1.5,1.5,0,0,1,.2,1.07,1.08,1.08,0,0,1-1-.62,3.07,3.07,0,0,1-.51-2.85,3.12,3.12,0,0,1,.94-1.39,3,3,0,0,1,1.17-.6C402.51,204.61,403,204.77,403,204.93Z" transform="translate(-321.29 -54.84)"/></svg>